:SAMPLES-PER-SECOND 30
:FULLY-SPECIFIED
:DEGREES
248
root  -3.30499 39.1414 -1.36273 75.7112 -82.8345 -84.5598
RightUpLeg  3.93746 -2.58096 9.25793
RightLeg  19.639 -26.7482 -6.52771
RightFoot  -13.0647 -0.0679051 1.36986
RightToes  -3.1126e-008 1.75238e-005 3.56266e-009
Spine  -18.2378 0.763419 21.5849
Spine1  22.5051 -2.2653 2.384
HEad  11.1238 2.3244 3.93004
LeftShoulder1  2.56477 -6.74834 -18.4626
LeftArm  -30.3647 30.8119 -69.3801
LeftForeArm  76.6588 -19.9887 -2.81686
LeftHand  -0.528743 -6.2467 5.61304
RightShoulder  0.461778 0.310444 4.18766
RightArm  -7.03823 72.2338 46.6122
RightForeArm  13.9209 33.2294 6.57657
RightHand  0.468413 -3.1097 25.3899
LeftUpLeg  -7.29677 9.29902 15.0545
LeftLeg  39.7176 -0.232293 0.154679
LeftFoot  -11.7523 0.0322188 -10.2429
LeftToes  4.78349e-008 1.46828e-008 1.33736e-009
249
root  -3.31069 39.1231 -1.34887 77.4613 -82.7453 -86.2847
RightUpLeg  3.83483 -2.59157 9.32743
RightLeg  19.7905 -26.5334 -6.5036
RightFoot  -13.1185 -0.0687528 1.29516
RightToes  -3.1126e-008 1.75238e-005 3.56266e-009
Spine  -18.1154 0.940932 22.2389
Spine1  22.3754 -1.97045 1.88647
HEad  10.7671 2.73652 3.80407
LeftShoulder1  2.5732 -6.81191 -18.3842
LeftArm  -30.2972 30.8547 -69.5493
LeftForeArm  76.3427 -20.3544 -2.69423
LeftHand  -0.460233 -6.10538 4.971
RightShoulder  0.452381 0.198609 4.3136
RightArm  -7.242 72.1135 47.1136
RightForeArm  15.8516 33.1479 6.44217
RightHand  0.604755 -1.76357 19.6878
LeftUpLeg  -7.39513 9.37975 15.1607
LeftLeg  39.9765 -0.123168 0.251849
LeftFoot  -11.8597 0.0200003 -10.0043
LeftToes  4.78349e-008 1.46828e-008 1.33736e-009
250
root  -3.30012 39.1185 -1.33486 78.7676 -82.67 -87.5918
RightUpLeg  3.8217 -2.58876 9.35582
RightLeg  19.7669 -26.3616 -6.38757
RightFoot  -13.1138 -0.0674493 1.38133
RightToes  -3.1126e-008 1.75238e-005 3.56266e-009
Spine  -18.1903 1.02529 22.5344
Spine1  22.7384 -1.907 1.72935
HEad  10.2199 2.96426 3.69657
LeftShoulder1  2.57795 -6.81177 -18.4343
LeftArm  -29.1726 30.7355 -69.4605
LeftForeArm  75.086 -20.9051 -2.60525
LeftHand  -0.391355 -5.8212 4.37617
RightShoulder  0.448457 0.188151 4.23333
RightArm  -7.22542 72.0246 47.2839
RightForeArm  17.8558 33.0264 6.29332
RightHand  0.476821 -0.66535 12.2633
LeftUpLeg  -7.40555 9.30892 15.1952
LeftLeg  40.0294 0.0435786 0.402215
LeftFoot  -11.9307 0.0203344 -9.89551
LeftToes  4.78349e-008 1.46828e-008 1.33736e-009
251
root  -3.28085 39.1155 -1.33163 78.7024 -82.5974 -87.656
RightUpLeg  3.94351 -2.69871 9.34027
RightLeg  19.7279 -26.2463 -6.24142
RightFoot  -13.072 -0.0664079 1.46553
RightToes  -3.1126e-008 1.75238e-005 3.56266e-009
Spine  -18.245 0.92195 22.475
Spine1  23.4588 -2.04071 1.81435
HEad  9.46492 3.35928 3.40879
LeftShoulder1  2.55527 -6.7188 -18.4398
LeftArm  -28.2028 30.5426 -69.4075
LeftForeArm  73.9117 -21.4997 -2.48953
LeftHand  -0.465875 -5.94507 5.09754
RightShoulder  0.489998 0.536683 4.20803
RightArm  -8.47038 71.6596 45.6539
RightForeArm  21.6763 33.341 6.15115
RightHand  0.31859 1.40287 5.14265
LeftUpLeg  -7.29055 9.136 15.2312
LeftLeg  40.0057 0.167598 0.513592
LeftFoot  -11.9829 0.0166337 -9.80618
LeftToes  4.78349e-008 1.46828e-008 1.33736e-009
252
root  -3.23693 39.1193 -1.33132 77.2722 -82.5667 -86.3053
RightUpLeg  4.01633 -3.02724 9.09368
RightLeg  19.6027 -26.0377 -5.81465
RightFoot  -12.9997 -0.0647103 1.6108
RightToes  -3.1126e-008 1.75238e-005 3.56266e-009
Spine  -17.9463 0.704935 22.0889
Spine1  23.839 -2.22191 2.0143
HEad  8.23709 3.8003 3.26196
LeftShoulder1  2.6282 -6.95262 -18.5894
LeftArm  -27.9526 30.5364 -69.29
LeftForeArm  72.3533 -22.2394 -2.30587
LeftHand  -0.492224 -5.93499 5.36925
RightShoulder  0.505718 0.65267 4.25499
RightArm  -9.85321 70.8223 43.1521
RightForeArm  23.0709 35.1713 6.54205
RightHand  0.109818 1.8582 1.51363
LeftUpLeg  -7.27961 8.7392 15.117
LeftLeg  39.8913 0.397051 0.718254
LeftFoot  -12.0077 0.014839 -9.77304
LeftToes  4.78349e-008 1.46828e-008 1.33736e-009
